<svg xmlns="http://www.w3.org/2000/svg" viewBox="0 0 213.57 64.7"><defs><style>.cls-1{fill:#f5853f;}.cls-2{fill:#f47633;}.cls-3{fill:#f99f3f;}.cls-4{fill:#f78e34;}.cls-5{fill:#fec23b;}.cls-6{fill:#fbad30;}.cls-7{fill:#fff;}</style></defs><title>logo--color-white</title><g id="Layer_2" data-name="Layer 2"><g id="brand"><g id="logo--color-white"><path class="cls-1" d="M207.8,31.33l.2.19a21.7,21.7,0,0,1,4.12,7.9,16.9,16.9,0,0,1,.19,8.32,2.35,2.35,0,0,1-.54,1.09,12.4,12.4,0,0,1-.94,1,26.85,26.85,0,0,1-2.57,2c-2.51,1.76-5.11,3.38-7.75,4.94-3.39,2-6.83,3.93-10.36,5.66-1.27.62-2.55,1.22-3.87,1.73a13.51,13.51,0,0,1-1.67.52,2.78,2.78,0,0,1-1.3,0,15.83,15.83,0,0,1-2.72-.95c-1.93-.83-3.81-1.77-5.66-2.76-4.52-2.39-8.93-5-13.2-7.76l-1.34-.9L160,52a1,1,0,0,1,.26,0c.29.13.58.28.87.41a21,21,0,0,0,4.91,1.41,20.28,20.28,0,0,0,3.79.26,16.43,16.43,0,0,0,6.6-1.51c1.94-.9,3.88-1.83,5.78-2.82q5.76-3,11.35-6.33c3.25-1.93,6.47-3.9,9.59-6,.83-.57,1.64-1.17,2.44-1.78a13.13,13.13,0,0,0,1.32-1.15,3.31,3.31,0,0,0,1-2,3,3,0,0,0,0-.61C207.89,31.71,207.85,31.57,207.8,31.33Z"/><path class="cls-2" d="M208,31.52l-.2-.19c0,.24.09.38.1.52a3,3,0,0,1,0,.61,3.31,3.31,0,0,1-1,2,13.14,13.14,0,0,1-1.32,1.15c-.8.61-1.61,1.21-2.44,1.78-2.29,1.57-4.63,3.05-7,4.49,11.57-2.09,15.05,2.81,16.1,5.93l0-.09a16.9,16.9,0,0,0-.19-8.32A21.7,21.7,0,0,0,208,31.52Z"/><path class="cls-3" d="M213.18,43.17c-.15-.09-.13-.22-.13-.33a13.7,13.7,0,0,0-.28-2.21,20.3,20.3,0,0,0-4-8.87,15.43,15.43,0,0,0-3.22-3c-1.51-1-3-2.09-4.56-3.09-3.75-2.44-7.61-4.73-11.5-6.93-3.16-1.79-6.35-3.52-9.61-5.12-1.26-.62-2.52-1.22-3.83-1.72a15.24,15.24,0,0,0-1.45-.49,3.4,3.4,0,0,0-1.9,0,2.53,2.53,0,0,0-.95.53l-.27.22a1.32,1.32,0,0,1,0-.22,20.72,20.72,0,0,1,6.62-9.13A16.87,16.87,0,0,1,183.31.12,3.08,3.08,0,0,1,185,.1a12.71,12.71,0,0,1,2.11.71c1.73.71,3.4,1.53,5.06,2.39A160,160,0,0,1,207,11.93c1.16.77,2.29,1.56,3.38,2.42a14.28,14.28,0,0,1,1.39,1.26,2.85,2.85,0,0,1,.69,1.2,16.8,16.8,0,0,1,.54,3,112.16,112.16,0,0,1,.54,11.28c0,2.67,0,5.34-.12,8-.06,1.31-.16,2.62-.24,3.93C213.21,43,213.19,43.09,213.18,43.17Z"/><path class="cls-4" d="M172.65,11.42a3.4,3.4,0,0,1,1.9,0,15.25,15.25,0,0,1,1.45.49c1.31.5,2.57,1.11,3.83,1.72,2.34,1.15,4.64,2.37,6.92,3.62-9.13-10-4.27-16-3.1-17.18l-.34.08a16.87,16.87,0,0,0-5.22,2.69,20.72,20.72,0,0,0-6.62,9.13,1.31,1.31,0,0,0,0,.22l.27-.22A2.53,2.53,0,0,1,172.65,11.42Z"/><path class="cls-5" d="M179,1.68c-.05.18-.19.23-.29.3a20.6,20.6,0,0,0-6.49,7.28,16.26,16.26,0,0,0-1.77,5.19c-.08.49-.13,1-.17,1.48-.23,2.69-.4,5.38-.49,8.08-.14,4.38-.19,8.75-.08,13.13,0,1.47.06,2.95.12,4.42.07,1.91.18,3.82.35,5.72a25.67,25.67,0,0,0,.42,3.08,4.83,4.83,0,0,0,.44,1.37,3.88,3.88,0,0,0,.61.85,2.58,2.58,0,0,0,1,.65l.41.15c-.49.07-.87.15-1.26.18-.78.06-1.57.13-2.36.15a20.09,20.09,0,0,1-6.17-.83A16.7,16.7,0,0,1,157,49.41l-.1-.09a3.22,3.22,0,0,1-1.18-1.84,13.42,13.42,0,0,1-.36-1.8c-.24-1.78-.37-3.57-.46-5.36-.23-4.24-.23-8.49-.14-12.73q.06-2.8.27-5.6a37.46,37.46,0,0,1,.42-3.78c.1-.56.23-1.11.38-1.66a2.6,2.6,0,0,1,.67-1.11,14.92,14.92,0,0,1,1.71-1.5c1.52-1.16,3.1-2.23,4.71-3.26A161.05,161.05,0,0,1,177.59,2.3l1.26-.61Z"/><path class="cls-6" d="M171.6,52.57a3.88,3.88,0,0,1-.61-.85,4.83,4.83,0,0,1-.44-1.37,25.67,25.67,0,0,1-.42-3.08c-.18-1.9-.28-3.81-.35-5.72-.05-1.34-.08-2.68-.11-4-1.15,3.54-5,13.15-13.1,11.54a2.79,2.79,0,0,0,.3.25l.1.09a16.7,16.7,0,0,0,6.27,3.46,20.09,20.09,0,0,0,6.17.83c.79,0,1.57-.08,2.36-.15.39,0,.78-.11,1.26-.18l-.41-.15A2.58,2.58,0,0,1,171.6,52.57Z"/><path class="cls-7" d="M96.84,41a10.58,10.58,0,0,1-15.69,0,10.57,10.57,0,0,1-15.7,0,10.58,10.58,0,0,1-15.69,0,10.58,10.58,0,0,1-15.69,0,10.58,10.58,0,0,1-15.66,0L18,41.4,8.64,50.77a1.19,1.19,0,0,1-1.08.38,6.12,6.12,0,0,1-1.74-.52A11,11,0,0,1,3.6,49.23c-.41-.33-.42-.56,0-.93Q8.69,43.16,13.85,38a6.3,6.3,0,0,0,1.35-1.74,5.19,5.19,0,1,0-9.84-2.9,5.1,5.1,0,0,0,1.31,4.17c.38.42.82.79,1.23,1.19l2,2c.32.32.32.59,0,.86a9.57,9.57,0,0,1-3,1.72,8,8,0,0,1-1.14.25A.86.86,0,0,1,5,43.35c-.91-.93-1.88-1.81-2.7-2.82A10.09,10.09,0,0,1,0,33.19a10.5,10.5,0,0,1,20.81-1c.09.54.12,1.09.16,1.63a6.24,6.24,0,0,0,.76,2.78A5.19,5.19,0,0,0,31.33,35a4.27,4.27,0,0,0,.07-.8c0-1.37,0-2.75,0-4.12,0-.44.21-.65.62-.6a10.1,10.1,0,0,1,3,.75,11.76,11.76,0,0,1,1.17.67A1.11,1.11,0,0,1,36.78,32c0,.69,0,1.39,0,2.08a4.73,4.73,0,0,0,1.41,3.48,5,5,0,0,0,5.18,1.4A4.9,4.9,0,0,0,47,35a5.15,5.15,0,0,0-4.53-6.24c-.25,0-.51,0-.76,0H32.15c-.66,0-.79-.12-.72-.77A9.23,9.23,0,0,1,32.21,25a10.25,10.25,0,0,1,.69-1.15,1,1,0,0,1,.93-.47h8.1a10,10,0,0,1,4.41,1,10.33,10.33,0,0,1,6,8A10.73,10.73,0,0,1,52.43,34a5.19,5.19,0,0,0,10.33.68,3.29,3.29,0,0,0,0-.47q0-5,0-9.92c0-.71.12-.83.81-.75a9.42,9.42,0,0,1,2.84.74,11,11,0,0,1,1.13.65A1.13,1.13,0,0,1,68.12,26c0,.6,0,1.19,0,1.79q0,3.06,0,6.13a5.19,5.19,0,0,0,10.38,0q0-11.14,0-22.29c0-.12,0-.24,0-.36,0-.39.19-.58.56-.55a8.51,8.51,0,0,1,4.24,1.41,1.21,1.21,0,0,1,.54,1.08c0,3,0,6.08,0,9.12q0,5.76,0,11.53a5.2,5.2,0,0,0,10.32.86,3.1,3.1,0,0,0,0-.47q0-4.94,0-9.89c0-.1,0-.19,0-.29,0-.45.19-.62.64-.58a9.3,9.3,0,0,1,3.45,1,7.71,7.71,0,0,1,.85.56.91.91,0,0,1,.39.75c0,.15,0,.29,0,.44,0,2.57,0,5.13,0,7.7a5.19,5.19,0,0,0,3.66,5,5,5,0,0,0,1.51.23h15.47a5.52,5.52,0,0,0,2.48-.46A5.06,5.06,0,0,0,125.69,34a12.31,12.31,0,0,0-.08-2,5.18,5.18,0,0,0-10.17-.25,5.23,5.23,0,0,0-.12,1.08q0,1.66,0,3.32a1.23,1.23,0,0,1-.54,1.08,7.19,7.19,0,0,1-2.73,1.17,13.1,13.1,0,0,1-1.47.24c-.42,0-.6-.12-.6-.53,0-1.92,0-3.84,0-5.76a10,10,0,0,1,2.64-6.48,10.16,10.16,0,0,1,6.89-3.48,10.46,10.46,0,0,1,11.26,8.47,14.42,14.42,0,0,1,.2,2.06,13.6,13.6,0,0,1-.11,2.62,10.53,10.53,0,0,1-9.44,8.91c-.53.05-1.07,0-1.6,0h-15A10.42,10.42,0,0,1,97,41.13l-.1-.1Zm-39,8.47a3.76,3.76,0,0,0-1.6-1.1,3.65,3.65,0,0,0-2-.15,3.74,3.74,0,0,0,.16,7.38,3.83,3.83,0,0,0,4.29-3.11,4.06,4.06,0,0,0,.86,1.82,3.75,3.75,0,0,0,1.6,1.1,3.65,3.65,0,0,0,2,.15A3.74,3.74,0,0,0,63,48.16a3.83,3.83,0,0,0-4.29,3.11A4.07,4.07,0,0,0,57.81,49.45Zm37.1,6.12a3.74,3.74,0,0,0,0-7.4,3.81,3.81,0,0,0-4.31,3.05,3.81,3.81,0,0,0-4.35-3,3.74,3.74,0,0,0,0,7.4,3.81,3.81,0,0,0,4.31-3.05A3.81,3.81,0,0,0,94.91,55.57Zm25-37.34a3.75,3.75,0,1,0-3.74-3.73A3.75,3.75,0,0,0,119.93,18.23Z"/></g></g></g></svg>